<?xml version="1.0" encoding="utf-8"?>
<svg width="291" height="79.459999" id="svg3070" version="1.1" xmlns="http://www.w3.org/2000/svg">
  <path d="M 0 5.014 C 0 2.246 2.316 0 5.173 0 L 64.827 0 C 67.684 0 70 2.246 70 5.014 L 70 64.986 C 70 67.755 67.684 70 64.827 70 L 5.173 70 C 2.316 70 0 67.755 0 64.986 L 0 5.014 Z" style="fill-opacity: 1; fill-rule: nonzero; stroke: none; fill: rgb(255, 153, 0);" id="path14"/>
  <path d="M 21.22 58.598 L 21.22 26.989 L 10.647 26.989 L 10.647 58.598 L 21.22 58.598 Z M 15.933 22.673 C 19.619 22.673 21.914 20.246 21.914 17.213 C 21.846 14.111 19.619 11.751 16.002 11.751 C 12.386 11.751 10.021 14.111 10.021 17.213 C 10.021 20.246 12.316 22.673 15.864 22.673 L 15.932 22.673 L 15.933 22.673 Z" style="fill-opacity: 1; fill-rule: evenodd; stroke: none; fill: rgb(255, 255, 255);" id="path28"/>
  <path d="M 27.07 58.598 L 37.642 58.598 L 37.642 40.946 C 37.642 40.002 37.711 39.058 37.99 38.382 C 38.755 36.495 40.494 34.54 43.415 34.54 C 47.24 34.54 48.771 37.438 48.771 41.688 L 48.771 58.598 L 59.343 58.598 L 59.343 40.473 C 59.343 30.765 54.127 26.247 47.171 26.247 C 41.467 26.247 38.963 29.415 37.572 31.573 L 37.642 31.573 L 37.642 26.989 L 27.07 26.989 C 27.208 29.954 27.07 58.598 27.07 58.598 Z" style="fill-opacity: 1; fill-rule: evenodd; stroke: none; fill: rgb(255, 255, 255);" id="path30"/>
</svg>