<?xml version="1.0" encoding="UTF-8"?>
<svg viewBox="0 0 443.969 80" xmlns="http://www.w3.org/2000/svg" xmlns:bx="https://boxy-svg.com">
  <defs>
    <radialGradient id="Gradient_1" gradientUnits="userSpaceOnUse" cx="60.875" cy="117.988" r="38.425" gradientTransform="matrix(1, 0, 0, 1, -22.450001, -79.553001)">
      <stop offset="0.897" stop-color="#FFFFFF"/>
      <stop offset="1" stop-color="#9D9E9C"/>
    </radialGradient>
    <radialGradient id="Gradient_3" gradientUnits="userSpaceOnUse" cx="16.986" cy="151.537" r="25.263" gradientTransform="matrix(1, 0, 0, 1, -22.450001, -79.563004)">
      <stop offset="0" stop-color="#429ABF"/>
      <stop offset="1" stop-color="#00689D"/>
    </radialGradient>
    <radialGradient id="Gradient_2" gradientUnits="userSpaceOnUse" cx="60.912" cy="117.988" r="34.919" gradientTransform="matrix(1, 0, 0, 1, -22.450001, -79.563004)">
      <stop offset="0" stop-color="#46ABD4"/>
      <stop offset="1" stop-color="#0074B0"/>
    </radialGradient>
    <radialGradient id="gradient-0" gradientUnits="userSpaceOnUse" cx="478.532" cy="321.062" r="111.83" gradientTransform="matrix(1.151237, -1.856607, 2.150631, 1.333555, -737.881074, 791.979042)">
      <stop offset="0" style="stop-color: rgba(8, 80, 144, 0.24);"/>
      <stop offset="1" style="stop-color: rgba(9, 81, 145, 0.61);"/>
    </radialGradient>
  </defs>
  <g transform="matrix(1.041452, 0, 0, 1.041452, 0.000002, -0.010415)" style="" bx:origin="0 0">
    <path d="M 40.402 0.06 C 60.94 1.457 76.333 17.988 76.85 38.435 C 76.85 59.657 59.647 76.86 38.425 76.86 C 17.203 76.86 0 59.657 0 38.435 C 0 17.214 17.203 0.01 38.425 0.01 L 40.402 0.06 Z M 40.256 73.989 C 59.293 72.694 73.561 57.371 74.041 38.418 C 74.041 18.747 58.094 2.8 38.423 2.8 L 38.423 2.8 C 18.752 2.8 2.806 18.747 2.806 38.418 C 2.806 58.089 18.752 74.035 38.423 74.035 L 38.423 74.035 L 40.256 73.989 Z" fill="url(#Gradient_1)"/>
    <path d="M 27.463 75.091 L 27.463 75.091 C 27.462 75.091 27.462 75.091 27.462 75.091 L 27.463 75.091 L 27.463 75.064 C 27.463 75.064 27.463 75.064 27.463 75.064 L 27.463 75.091 Z" fill="url(#Gradient_3)"/>
    <path d="M 89.465 47.945 L 94.907 47.945 L 94.907 34.92 L 100.082 34.92 L 100.082 29.746 L 94.907 29.746 L 94.907 21.895 L 100.84 21.895 L 100.84 16.72 L 89.465 16.72 Z M 107.689 16.72 L 113.176 16.72 L 116.923 28.586 L 120.67 16.72 L 126.157 16.72 L 126.157 47.945 L 120.937 47.945 L 120.937 28.987 L 116.967 40.897 L 116.878 40.897 L 112.908 28.987 L 112.908 47.945 L 107.689 47.945 Z M 133.829 16.72 L 139.271 16.72 L 139.271 29.656 L 144 29.656 L 144 16.72 L 149.442 16.72 L 149.442 47.945 L 144 47.945 L 144 34.831 L 139.271 34.831 L 139.271 47.945 L 133.829 47.945 Z M 89.652 55.662 L 93.936 55.662 L 93.936 56.787 L 90.889 56.787 L 90.889 57.984 L 93.574 57.984 L 93.574 59.11 L 90.889 59.11 L 90.889 61.288 L 89.652 61.288 Z M 96.588 55.662 L 97.826 55.662 L 97.826 61.288 L 96.588 61.288 Z M 100.84 55.662 L 101.981 55.662 L 104.618 59.126 L 104.618 55.662 L 105.839 55.662 L 105.839 61.288 L 104.787 61.288 L 102.062 57.711 L 102.062 61.288 L 100.84 61.288 Z M 112.028 58.933 L 111.281 57.108 L 110.533 58.933 Z M 110.726 55.621 L 111.868 55.621 L 114.279 61.288 L 112.985 61.288 L 112.47 60.026 L 110.091 60.026 L 109.577 61.288 L 108.315 61.288 Z M 116.755 55.662 L 117.896 55.662 L 120.532 59.126 L 120.532 55.662 L 121.754 55.662 L 121.754 61.288 L 120.701 61.288 L 117.976 57.711 L 117.976 61.288 L 116.755 61.288 Z M 124.543 60.347 L 127.637 56.747 L 124.639 56.747 L 124.639 55.662 L 129.229 55.662 L 129.229 56.602 L 126.134 60.203 L 129.229 60.203 L 129.229 61.288 L 124.543 61.288 Z M 135.563 59.576 C 135.563 59.198 135.281 58.965 134.646 58.965 L 133.216 58.965 L 133.216 60.203 L 134.686 60.203 C 135.233 60.203 135.563 60.01 135.563 59.592 L 135.563 59.576 Z M 135.249 57.325 C 135.249 56.956 134.96 56.747 134.437 56.747 L 133.216 56.747 L 133.216 57.936 L 134.357 57.936 C 134.903 57.936 135.249 57.759 135.249 57.341 Z M 132.01 55.662 L 134.622 55.662 C 135.265 55.662 135.771 55.838 136.093 56.16 C 136.35 56.417 136.479 56.731 136.479 57.116 L 136.479 57.132 C 136.479 57.767 136.141 58.121 135.739 58.346 C 136.39 58.595 136.792 58.973 136.792 59.729 L 136.792 59.745 C 136.792 60.773 135.956 61.288 134.686 61.288 L 132.01 61.288 Z M 139.421 55.662 L 143.664 55.662 L 143.664 56.763 L 140.65 56.763 L 140.65 57.904 L 143.303 57.904 L 143.303 59.005 L 140.65 59.005 L 140.65 60.187 L 143.705 60.187 L 143.705 61.288 L 139.421 61.288 Z M 148.905 58.394 C 149.508 58.394 149.853 58.073 149.853 57.599 L 149.853 57.583 C 149.853 57.052 149.484 56.779 148.881 56.779 L 147.651 56.779 L 147.651 58.394 Z M 146.413 55.662 L 148.985 55.662 C 149.701 55.662 150.255 55.863 150.625 56.232 C 150.938 56.546 151.107 56.988 151.107 57.518 L 151.107 57.534 C 151.107 58.443 150.617 59.013 149.902 59.278 L 151.276 61.288 L 149.829 61.288 L 148.624 59.487 L 147.651 59.487 L 147.651 61.288 L 146.413 61.288 Z M 157.063 58.933 L 156.316 57.108 L 155.568 58.933 Z M 155.761 55.621 L 156.902 55.621 L 159.314 61.288 L 158.02 61.288 L 157.505 60.026 L 155.126 60.026 L 154.612 61.288 L 153.35 61.288 Z M 162.376 56.803 L 160.664 56.803 L 160.664 55.662 L 165.326 55.662 L 165.326 56.803 L 163.614 56.803 L 163.614 61.288 L 162.376 61.288 Z M 170.229 61.376 C 168.718 61.376 167.793 60.532 167.793 58.877 L 167.793 55.662 L 169.031 55.662 L 169.031 58.844 C 169.031 59.761 169.489 60.235 170.245 60.235 C 171 60.235 171.458 59.777 171.458 58.885 L 171.458 55.662 L 172.696 55.662 L 172.696 58.836 C 172.696 60.54 171.74 61.376 170.229 61.376 Z M 175.566 55.662 L 176.707 55.662 L 179.343 59.126 L 179.343 55.662 L 180.565 55.662 L 180.565 61.288 L 179.512 61.288 L 176.787 57.711 L 176.787 61.288 L 175.566 61.288 Z M 186.232 61.384 C 184.479 61.384 183.274 60.155 183.274 58.491 L 183.274 58.475 C 183.274 56.875 184.52 55.565 186.224 55.565 C 187.236 55.565 187.847 55.838 188.434 56.337 L 187.654 57.277 C 187.22 56.915 186.834 56.706 186.183 56.706 C 185.283 56.706 184.568 57.502 184.568 58.459 L 184.568 58.475 C 184.568 59.504 185.275 60.259 186.272 60.259 C 186.722 60.259 187.124 60.147 187.437 59.921 L 187.437 59.118 L 186.191 59.118 L 186.191 58.049 L 188.635 58.049 L 188.635 60.492 C 188.056 60.982 187.26 61.384 186.232 61.384 Z" fill="#0074B0"/>
    <path transform="matrix(-0.171689, 0, 0, -0.171689, 97.804359, 102.843414)" d="M 346 151.34 A 223.66 223.66 0 0 1 569.66 375 L 346 375 Z" style="fill: rgb(10, 80, 143);" bx:shape="pie 346 375 0 223.66 0 90 1@874236ae"/>
    <path d="M 73.382 38.426 C 73.382 57.711 57.748 73.344 38.463 73.344 C 19.177 73.344 3.543 57.711 3.543 38.426 C 3.543 19.141 19.177 3.506 38.463 3.506 C 57.748 3.506 73.382 19.141 73.382 38.426 Z" fill="url(#Gradient_2)"/>
    <path transform="matrix(-0.171689, 0, 0, -0.171689, 97.804359, 102.843414)" d="M 346 151.34 A 223.66 223.66 0 0 1 569.66 375 L 346 375 Z" style="fill: url(#gradient-0);" bx:shape="pie 346 375 0 223.66 0 90 1@874236ae"/>
  </g>
  <path d="M 186.714 32.648 L 186.714 30.118 L 183.172 30.118 L 186.714 19.382 L 186.714 17.248 L 180.356 17.248 L 180.356 19.778 L 183.766 19.778 L 180.224 30.514 L 180.224 32.648 L 186.714 32.648 Z M 192.218 32.648 L 192.218 17.248 L 189.534 17.248 L 189.534 32.648 L 192.218 32.648 Z M 197.964 32.648 L 197.964 24.486 L 200.802 32.648 L 203.178 32.648 L 203.178 17.248 L 200.56 17.248 L 200.56 25.036 L 197.854 17.248 L 195.346 17.248 L 195.346 32.648 L 197.964 32.648 Z M 208.66 32.758 C 210.772 32.758 212.466 31.152 212.466 28.732 L 212.466 28.688 C 212.466 26.928 212.004 25.982 209.892 23.54 C 208.616 22.066 208.396 21.802 208.396 21.076 L 208.396 21.032 C 208.396 20.196 209.034 19.712 209.782 19.712 C 210.486 19.712 210.992 19.932 211.828 20.416 L 211.828 17.622 C 211.168 17.292 210.53 17.138 209.452 17.138 C 207.318 17.138 205.712 18.7 205.712 21.164 L 205.712 21.208 C 205.712 23.078 206.46 24.068 208.286 26.136 C 209.562 27.588 209.782 28.116 209.782 28.82 L 209.782 28.864 C 209.782 29.81 209.122 30.184 208.352 30.184 C 207.626 30.184 206.878 29.876 205.932 29.326 L 205.932 32.12 C 206.702 32.494 207.604 32.758 208.66 32.758 Z M 220.874 32.648 L 220.874 30.096 L 217.596 30.096 L 217.596 26.18 L 220.434 26.18 L 220.434 23.628 L 217.596 23.628 L 217.596 19.8 L 220.808 19.8 L 220.808 17.248 L 214.912 17.248 L 214.912 32.648 L 220.874 32.648 Z M 226.29 32.648 L 226.29 24.486 L 229.128 32.648 L 231.504 32.648 L 231.504 17.248 L 228.886 17.248 L 228.886 25.036 L 226.18 17.248 L 223.672 17.248 L 223.672 32.648 L 226.29 32.648 Z M 234.412 36.212 C 236.59 35.926 237.712 34.43 237.712 32.098 L 237.712 29.59 L 234.676 29.59 L 234.676 32.648 L 236.04 32.648 C 236.15 33.616 235.82 34.782 234.192 35.134 L 234.412 36.212 Z M 252.086 32.648 L 252.086 30.118 L 248.544 30.118 L 252.086 19.382 L 252.086 17.248 L 245.728 17.248 L 245.728 19.778 L 249.138 19.778 L 245.596 30.514 L 245.596 32.648 L 252.086 32.648 Z M 256.688 32.648 L 257.172 29.59 L 259.614 29.59 L 260.12 32.648 L 262.804 32.648 L 259.878 17.204 L 257.018 17.204 L 254.092 32.648 L 256.688 32.648 Z M 259.218 27.17 L 257.568 27.17 L 258.404 22.088 L 259.218 27.17 Z M 267.802 32.648 L 267.802 26.18 L 270.134 26.18 L 270.134 32.648 L 272.818 32.648 L 272.818 17.248 L 270.134 17.248 L 270.134 23.628 L 267.802 23.628 L 267.802 17.248 L 265.118 17.248 L 265.118 32.648 L 267.802 32.648 Z M 281.424 32.648 L 281.424 30.096 L 278.586 30.096 L 278.586 17.248 L 275.902 17.248 L 275.902 32.648 L 281.424 32.648 Z M 289.964 32.648 L 289.964 30.096 L 286.686 30.096 L 286.686 26.18 L 289.524 26.18 L 289.524 23.628 L 286.686 23.628 L 286.686 19.8 L 289.898 19.8 L 289.898 17.248 L 284.002 17.248 L 284.002 32.648 L 289.964 32.648 Z M 295.38 32.648 L 295.38 24.486 L 298.218 32.648 L 300.594 32.648 L 300.594 17.248 L 297.976 17.248 L 297.976 25.036 L 295.27 17.248 L 292.762 17.248 L 292.762 32.648 L 295.38 32.648 Z M 312.46 32.846 C 314.66 32.846 316.288 31.394 316.288 28.16 L 316.288 17.248 L 313.626 17.248 L 313.626 28.424 C 313.626 29.81 313.142 30.36 312.46 30.36 C 311.778 30.36 311.294 29.81 311.294 28.424 L 311.294 17.248 L 308.632 17.248 L 308.632 28.16 C 308.632 31.394 310.26 32.846 312.46 32.846 Z M 321.946 32.648 L 321.946 24.486 L 324.784 32.648 L 327.16 32.648 L 327.16 17.248 L 324.542 17.248 L 324.542 25.036 L 321.836 17.248 L 319.328 17.248 L 319.328 32.648 L 321.946 32.648 Z M 332.752 32.648 C 336.184 32.648 338.142 30.162 338.142 25.212 L 338.142 24.684 C 338.142 19.734 336.184 17.248 332.752 17.248 L 330.244 17.248 L 330.244 32.648 L 332.752 32.648 Z M 333.038 30.184 L 332.928 30.184 L 332.928 19.712 L 333.038 19.712 C 334.314 19.712 335.414 20.834 335.414 24.684 L 335.414 25.212 C 335.414 29.062 334.314 30.184 333.038 30.184 Z M 350.712 32.692 L 353.462 17.248 L 350.822 17.248 L 349.37 27.28 L 347.918 17.248 L 345.19 17.248 L 347.94 32.692 L 350.712 32.692 Z M 361.738 32.648 L 361.738 30.096 L 358.46 30.096 L 358.46 26.18 L 361.298 26.18 L 361.298 23.628 L 358.46 23.628 L 358.46 19.8 L 361.672 19.8 L 361.672 17.248 L 355.776 17.248 L 355.776 32.648 L 361.738 32.648 Z M 367.22 32.648 L 367.22 27.28 L 367.726 27.28 L 367.726 27.28 L 369.464 32.648 L 372.324 32.648 L 370.256 26.4 C 371.268 25.63 372.06 24.354 372.06 22.352 L 372.06 22.154 C 372.06 18.7 370.058 17.248 367.308 17.248 L 364.536 17.248 L 364.536 32.648 L 367.22 32.648 Z M 367.352 24.86 L 367.22 24.86 L 367.22 19.756 L 367.286 19.756 C 368.452 19.756 369.376 20.262 369.376 22.198 L 369.376 22.374 C 369.376 24.178 368.518 24.86 367.352 24.86 Z M 379.134 32.758 C 380.168 32.758 380.96 32.516 381.928 32.098 L 381.928 23.914 L 378.166 23.914 L 378.166 26.312 L 379.486 26.312 L 379.486 30.25 C 379.354 30.272 379.332 30.272 379.244 30.272 C 378.144 30.272 376.956 29.348 376.956 25.322 L 376.956 24.574 C 376.956 21.252 377.924 19.712 379.464 19.712 C 380.168 19.712 380.762 19.976 381.422 20.372 L 381.422 17.578 C 380.872 17.314 380.19 17.138 379.376 17.138 C 376.34 17.138 374.228 19.712 374.228 24.684 L 374.228 25.212 C 374.228 30.58 376.45 32.758 379.134 32.758 Z M 390.424 32.648 L 390.424 30.096 L 387.586 30.096 L 387.586 17.248 L 384.902 17.248 L 384.902 32.648 L 390.424 32.648 Z M 398.964 32.648 L 398.964 30.096 L 395.686 30.096 L 395.686 26.18 L 398.524 26.18 L 398.524 23.628 L 395.686 23.628 L 395.686 19.8 L 398.898 19.8 L 398.898 17.248 L 393.002 17.248 L 393.002 32.648 L 398.964 32.648 Z M 404.49 32.648 L 404.49 17.248 L 401.806 17.248 L 401.806 32.648 L 404.49 32.648 Z M 411.388 32.758 C 412.158 32.758 412.752 32.648 413.368 32.296 L 413.368 29.656 C 412.818 29.986 412.29 30.14 411.872 30.14 C 410.64 30.14 409.782 29.304 409.782 25.234 L 409.782 24.662 C 409.782 20.812 410.64 19.756 411.828 19.756 C 412.334 19.756 412.774 19.932 413.324 20.262 L 413.324 17.49 C 412.752 17.226 412.312 17.138 411.564 17.138 C 409.056 17.138 407.054 19.272 407.054 24.684 L 407.054 25.212 C 407.054 30.58 408.924 32.758 411.388 32.758 Z M 418.894 32.648 L 418.894 26.18 L 421.226 26.18 L 421.226 32.648 L 423.91 32.648 L 423.91 17.248 L 421.226 17.248 L 421.226 23.628 L 418.894 23.628 L 418.894 17.248 L 416.21 17.248 L 416.21 32.648 L 418.894 32.648 Z M 432.956 32.648 L 432.956 30.096 L 429.678 30.096 L 429.678 26.18 L 432.516 26.18 L 432.516 23.628 L 429.678 23.628 L 429.678 19.8 L 432.89 19.8 L 432.89 17.248 L 426.994 17.248 L 426.994 32.648 L 432.956 32.648 Z" fill="#1792D0" fill-rule="nonzero" bx:origin="-0.713103 -0.898501"/>
</svg>